<svg width="41" height="40" viewBox="0 0 41 40" fill="none" xmlns="http://www.w3.org/2000/svg">
<path d="M16.945 25H14.0388V15.6562H16.945V25ZM15.4763 14.4062C14.57 14.4062 13.82 13.625 13.82 12.6875C13.82 11.7812 14.57 11.0312 15.4763 11.0312C16.4138 11.0312 17.1638 11.7812 17.1638 12.6875C17.1638 13.625 16.4138 14.4062 15.4763 14.4062ZM27.7888 25H24.9138V20.4688C24.9138 19.375 24.8825 18 23.3825 18C21.8825 18 21.6638 19.1562 21.6638 20.375V25H18.7575V15.6562H21.5388V16.9375H21.57C21.9763 16.2188 22.9138 15.4375 24.32 15.4375C27.2575 15.4375 27.82 17.375 27.82 19.875V25H27.7888Z" fill="#D1D1D1"/>
<rect x="1.32001" y="0.5" width="39" height="39" stroke="#767676"/>
</svg>
