<svg width="332" height="110" viewBox="0 0 332 110" fill="none" xmlns="http://www.w3.org/2000/svg">
<g filter="url(#filter0_d_2_8336)">
<path d="M25.5 0H85.5V60C85.5 73.8071 74.3071 85 60.5 85H50.5C36.6929 85 25.5 73.8071 25.5 60V0Z" fill="#374B5D"/>
</g>
<rect x="33.5" y="36" width="43" height="43" rx="21.5" fill="#253747"/>
<path d="M51.168 67.5352C45.582 61.9922 45.582 52.9258 51.168 47.3828C51.4258 47.125 51.7695 47.082 52.0703 47.2539L54.8633 49.0156C55.0781 49.1445 55.207 49.3594 55.207 49.6172C55.207 49.7031 55.207 49.832 55.1641 49.918L53.7461 53.3984C53.6602 53.6562 53.4023 53.8281 53.0586 53.8281H53.0156L50.6094 53.6133C49.707 56.1055 49.707 58.8555 50.6094 61.3047L53.0156 61.0898H53.0586C53.4023 61.0898 53.6602 61.2617 53.7461 61.5195L55.1641 65C55.207 65.0859 55.207 65.2148 55.207 65.3008C55.207 65.5586 55.0781 65.7734 54.8633 65.9023L52.0703 67.6641C51.9414 67.75 51.8125 67.75 51.6836 67.75C51.4688 67.75 51.2969 67.707 51.168 67.5352ZM57.6133 49.875C58.0859 50.7344 58.0859 51.8086 57.6133 52.668C57.4414 52.9688 57.0547 53.0117 56.7969 52.7969L56.5391 52.5391C56.3672 52.3672 56.3242 52.1094 56.4531 51.8945C56.5391 51.7227 56.582 51.5078 56.582 51.293C56.582 51.0352 56.5391 50.8203 56.4531 50.6484C56.3242 50.4336 56.3672 50.1758 56.5391 50.0039L56.7969 49.7461C57.0547 49.5312 57.4414 49.5742 57.6133 49.875ZM61.5234 45.9648C64.1445 49.0156 64.1445 53.5273 61.5234 56.5781C61.3516 56.8359 61.0078 56.8359 60.793 56.6211L60.5352 56.4062C60.3633 56.1914 60.3203 55.8906 60.4922 55.6758C62.6406 53.1406 62.6406 49.4023 60.4922 46.8672C60.3203 46.6523 60.3633 46.3516 60.5352 46.1367L60.793 45.9219C61.0078 45.707 61.3516 45.707 61.5234 45.9648ZM59.5469 47.8984C61.0938 49.875 61.1367 52.668 59.5469 54.6445C59.375 54.9023 59.0312 54.9453 58.8164 54.7305L58.5586 54.4727C58.3438 54.3008 58.3438 54 58.4727 53.7852C59.6328 52.3242 59.6328 50.2188 58.4727 48.7578C58.3438 48.543 58.3438 48.2422 58.5586 48.0703L58.8164 47.8125C59.0312 47.5977 59.375 47.6406 59.5469 47.8984Z" fill="white"/>
<rect x="33.5" y="36" width="43" height="43" rx="21.5" stroke="#495D6F" stroke-width="2"/>
<path d="M107.072 62.0801H110.979V63.8184H107.072V67.7637H105.334V63.8184H101.438V62.0801H105.334V58.0957H107.072V62.0801ZM119.592 70H117.287V60.8105C117.287 60.5046 117.29 60.1986 117.297 59.8926C117.303 59.5866 117.31 59.2871 117.316 58.9941C117.329 58.7012 117.346 58.4212 117.365 58.1543C117.229 58.304 117.059 58.4668 116.857 58.6426C116.662 58.8184 116.454 59.0007 116.232 59.1895L114.592 60.498L113.439 59.043L117.678 55.7227H119.592V70ZM124.094 65.6055V63.6621H129.133V65.6055H124.094ZM140.402 70H130.734V68.2715L134.436 64.5215C135.152 63.7923 135.741 63.1641 136.203 62.6367C136.665 62.1029 137.007 61.5983 137.229 61.123C137.456 60.6478 137.57 60.1302 137.57 59.5703C137.57 58.8802 137.372 58.3594 136.975 58.0078C136.577 57.6497 136.053 57.4707 135.402 57.4707C134.784 57.4707 134.211 57.5944 133.684 57.8418C133.163 58.0827 132.622 58.4277 132.062 58.877L130.803 57.3633C131.2 57.0247 131.623 56.7155 132.072 56.4355C132.528 56.1556 133.036 55.9342 133.596 55.7715C134.156 55.6022 134.794 55.5176 135.51 55.5176C136.415 55.5176 137.196 55.6803 137.854 56.0059C138.511 56.3249 139.016 56.7708 139.367 57.3438C139.725 57.9167 139.904 58.584 139.904 59.3457C139.904 60.1139 139.751 60.8236 139.445 61.4746C139.139 62.1257 138.703 62.7702 138.137 63.4082C137.57 64.0397 136.896 64.7266 136.115 65.4688L133.645 67.8809V67.9883H140.402V70ZM151.301 58.9844C151.301 59.6289 151.171 60.1888 150.91 60.6641C150.65 61.1393 150.292 61.5299 149.836 61.8359C149.387 62.1354 148.866 62.3503 148.273 62.4805V62.5488C149.413 62.6921 150.272 63.0501 150.852 63.623C151.438 64.196 151.73 64.9544 151.73 65.8984C151.73 66.7253 151.532 67.4642 151.135 68.1152C150.738 68.7598 150.129 69.2676 149.309 69.6387C148.488 70.0098 147.434 70.1953 146.145 70.1953C145.37 70.1953 144.65 70.1335 143.986 70.0098C143.329 69.8861 142.704 69.6875 142.111 69.4141V67.373C142.717 67.6725 143.361 67.9036 144.045 68.0664C144.729 68.2292 145.376 68.3105 145.988 68.3105C147.18 68.3105 148.029 68.0892 148.537 67.6465C149.045 67.1973 149.299 66.5788 149.299 65.791C149.299 65.2832 149.165 64.8665 148.898 64.541C148.638 64.2155 148.231 63.9714 147.678 63.8086C147.131 63.6458 146.424 63.5645 145.559 63.5645H144.299V61.7188H145.568C146.395 61.7188 147.059 61.6211 147.561 61.4258C148.062 61.224 148.423 60.9473 148.645 60.5957C148.872 60.2441 148.986 59.834 148.986 59.3652C148.986 58.7533 148.788 58.278 148.391 57.9395C147.993 57.5944 147.404 57.4219 146.623 57.4219C146.141 57.4219 145.702 57.4772 145.305 57.5879C144.914 57.6986 144.553 57.8385 144.221 58.0078C143.889 58.1771 143.573 58.3594 143.273 58.5547L142.17 56.9629C142.71 56.5592 143.355 56.2174 144.104 55.9375C144.852 55.6576 145.725 55.5176 146.721 55.5176C148.186 55.5176 149.315 55.8333 150.109 56.4648C150.904 57.0898 151.301 57.9297 151.301 58.9844ZM163.811 66.8652H161.877V70H159.611V66.8652H153.117V65.127L159.641 55.6836H161.877V64.9609H163.811V66.8652ZM159.611 64.9609V61.416C159.611 61.123 159.615 60.8268 159.621 60.5273C159.634 60.2214 159.647 59.9284 159.66 59.6484C159.673 59.3685 159.686 59.1113 159.699 58.877C159.712 58.6361 159.722 58.4375 159.729 58.2812H159.65C159.527 58.5417 159.39 58.8086 159.24 59.082C159.09 59.349 158.931 59.6094 158.762 59.8633L155.246 64.9609H159.611ZM164.875 65.6055V63.6621H169.914V65.6055H164.875ZM181.184 62.8516C181.184 64.0039 181.092 65.0358 180.91 65.9473C180.734 66.8522 180.454 67.6204 180.07 68.252C179.686 68.8835 179.185 69.3652 178.566 69.6973C177.948 70.0293 177.199 70.1953 176.32 70.1953C175.22 70.1953 174.312 69.9056 173.596 69.3262C172.88 68.7402 172.349 67.9004 172.004 66.8066C171.659 65.7064 171.486 64.388 171.486 62.8516C171.486 61.3151 171.643 60 171.955 58.9062C172.274 57.806 172.788 56.9629 173.498 56.377C174.208 55.791 175.148 55.498 176.32 55.498C177.427 55.498 178.339 55.791 179.055 56.377C179.777 56.9564 180.311 57.7962 180.656 58.8965C181.008 59.9902 181.184 61.3086 181.184 62.8516ZM173.801 62.8516C173.801 64.056 173.879 65.0618 174.035 65.8691C174.198 66.6764 174.465 67.2819 174.836 67.6855C175.207 68.0827 175.702 68.2812 176.32 68.2812C176.939 68.2812 177.434 68.0827 177.805 67.6855C178.176 67.2884 178.443 66.6862 178.605 65.8789C178.775 65.0716 178.859 64.0625 178.859 62.8516C178.859 61.6536 178.778 60.651 178.615 59.8438C178.452 59.0365 178.186 58.431 177.814 58.0273C177.443 57.6172 176.945 57.4121 176.32 57.4121C175.695 57.4121 175.197 57.6172 174.826 58.0273C174.462 58.431 174.198 59.0365 174.035 59.8438C173.879 60.651 173.801 61.6536 173.801 62.8516ZM192.629 62.8516C192.629 64.0039 192.538 65.0358 192.355 65.9473C192.18 66.8522 191.9 67.6204 191.516 68.252C191.132 68.8835 190.63 69.3652 190.012 69.6973C189.393 70.0293 188.645 70.1953 187.766 70.1953C186.665 70.1953 185.757 69.9056 185.041 69.3262C184.325 68.7402 183.794 67.9004 183.449 66.8066C183.104 65.7064 182.932 64.388 182.932 62.8516C182.932 61.3151 183.088 60 183.4 58.9062C183.719 57.806 184.234 56.9629 184.943 56.377C185.653 55.791 186.594 55.498 187.766 55.498C188.872 55.498 189.784 55.791 190.5 56.377C191.223 56.9564 191.757 57.7962 192.102 58.8965C192.453 59.9902 192.629 61.3086 192.629 62.8516ZM185.246 62.8516C185.246 64.056 185.324 65.0618 185.48 65.8691C185.643 66.6764 185.91 67.2819 186.281 67.6855C186.652 68.0827 187.147 68.2812 187.766 68.2812C188.384 68.2812 188.879 68.0827 189.25 67.6855C189.621 67.2884 189.888 66.6862 190.051 65.8789C190.22 65.0716 190.305 64.0625 190.305 62.8516C190.305 61.6536 190.223 60.651 190.061 59.8438C189.898 59.0365 189.631 58.431 189.26 58.0273C188.889 57.6172 188.391 57.4121 187.766 57.4121C187.141 57.4121 186.643 57.6172 186.271 58.0273C185.907 58.431 185.643 59.0365 185.48 59.8438C185.324 60.651 185.246 61.6536 185.246 62.8516ZM204.074 62.8516C204.074 64.0039 203.983 65.0358 203.801 65.9473C203.625 66.8522 203.345 67.6204 202.961 68.252C202.577 68.8835 202.076 69.3652 201.457 69.6973C200.839 70.0293 200.09 70.1953 199.211 70.1953C198.111 70.1953 197.202 69.9056 196.486 69.3262C195.77 68.7402 195.24 67.9004 194.895 66.8066C194.549 65.7064 194.377 64.388 194.377 62.8516C194.377 61.3151 194.533 60 194.846 58.9062C195.165 57.806 195.679 56.9629 196.389 56.377C197.098 55.791 198.039 55.498 199.211 55.498C200.318 55.498 201.229 55.791 201.945 56.377C202.668 56.9564 203.202 57.7962 203.547 58.8965C203.898 59.9902 204.074 61.3086 204.074 62.8516ZM196.691 62.8516C196.691 64.056 196.77 65.0618 196.926 65.8691C197.089 66.6764 197.355 67.2819 197.727 67.6855C198.098 68.0827 198.592 68.2812 199.211 68.2812C199.829 68.2812 200.324 68.0827 200.695 67.6855C201.066 67.2884 201.333 66.6862 201.496 65.8789C201.665 65.0716 201.75 64.0625 201.75 62.8516C201.75 61.6536 201.669 60.651 201.506 59.8438C201.343 59.0365 201.076 58.431 200.705 58.0273C200.334 57.6172 199.836 57.4121 199.211 57.4121C198.586 57.4121 198.088 57.6172 197.717 58.0273C197.352 58.431 197.089 59.0365 196.926 59.8438C196.77 60.651 196.691 61.6536 196.691 62.8516ZM205.656 65.6055V63.6621H210.695V65.6055H205.656ZM221.965 70H212.297V68.2715L215.998 64.5215C216.714 63.7923 217.303 63.1641 217.766 62.6367C218.228 62.1029 218.57 61.5983 218.791 61.123C219.019 60.6478 219.133 60.1302 219.133 59.5703C219.133 58.8802 218.934 58.3594 218.537 58.0078C218.14 57.6497 217.616 57.4707 216.965 57.4707C216.346 57.4707 215.773 57.5944 215.246 57.8418C214.725 58.0827 214.185 58.4277 213.625 58.877L212.365 57.3633C212.762 57.0247 213.186 56.7155 213.635 56.4355C214.09 56.1556 214.598 55.9342 215.158 55.7715C215.718 55.6022 216.356 55.5176 217.072 55.5176C217.977 55.5176 218.758 55.6803 219.416 56.0059C220.074 56.3249 220.578 56.7708 220.93 57.3438C221.288 57.9167 221.467 58.584 221.467 59.3457C221.467 60.1139 221.314 60.8236 221.008 61.4746C220.702 62.1257 220.266 62.7702 219.699 63.4082C219.133 64.0397 218.459 64.7266 217.678 65.4688L215.207 67.8809V67.9883H221.965V70ZM232.863 58.9844C232.863 59.6289 232.733 60.1888 232.473 60.6641C232.212 61.1393 231.854 61.5299 231.398 61.8359C230.949 62.1354 230.428 62.3503 229.836 62.4805V62.5488C230.975 62.6921 231.835 63.0501 232.414 63.623C233 64.196 233.293 64.9544 233.293 65.8984C233.293 66.7253 233.094 67.4642 232.697 68.1152C232.3 68.7598 231.691 69.2676 230.871 69.6387C230.051 70.0098 228.996 70.1953 227.707 70.1953C226.932 70.1953 226.213 70.1335 225.549 70.0098C224.891 69.8861 224.266 69.6875 223.674 69.4141V67.373C224.279 67.6725 224.924 67.9036 225.607 68.0664C226.291 68.2292 226.939 68.3105 227.551 68.3105C228.742 68.3105 229.592 68.0892 230.1 67.6465C230.607 67.1973 230.861 66.5788 230.861 65.791C230.861 65.2832 230.728 64.8665 230.461 64.541C230.201 64.2155 229.794 63.9714 229.24 63.8086C228.693 63.6458 227.987 63.5645 227.121 63.5645H225.861V61.7188H227.131C227.958 61.7188 228.622 61.6211 229.123 61.4258C229.624 61.224 229.986 60.9473 230.207 60.5957C230.435 60.2441 230.549 59.834 230.549 59.3652C230.549 58.7533 230.35 58.278 229.953 57.9395C229.556 57.5944 228.967 57.4219 228.186 57.4219C227.704 57.4219 227.264 57.4772 226.867 57.5879C226.477 57.6986 226.115 57.8385 225.783 58.0078C225.451 58.1771 225.135 58.3594 224.836 58.5547L223.732 56.9629C224.273 56.5592 224.917 56.2174 225.666 55.9375C226.415 55.6576 227.287 55.5176 228.283 55.5176C229.748 55.5176 230.878 55.8333 231.672 56.4648C232.466 57.0898 232.863 57.9297 232.863 58.9844ZM245.373 66.8652H243.439V70H241.174V66.8652H234.68V65.127L241.203 55.6836H243.439V64.9609H245.373V66.8652ZM241.174 64.9609V61.416C241.174 61.123 241.177 60.8268 241.184 60.5273C241.197 60.2214 241.21 59.9284 241.223 59.6484C241.236 59.3685 241.249 59.1113 241.262 58.877C241.275 58.6361 241.285 58.4375 241.291 58.2812H241.213C241.089 58.5417 240.952 58.8086 240.803 59.082C240.653 59.349 240.493 59.6094 240.324 59.8633L236.809 64.9609H241.174ZM251.486 61.0742C252.404 61.0742 253.212 61.2402 253.908 61.5723C254.611 61.8978 255.158 62.3796 255.549 63.0176C255.939 63.6491 256.135 64.4238 256.135 65.3418C256.135 66.3444 255.923 67.2103 255.5 67.9395C255.077 68.6621 254.455 69.2188 253.635 69.6094C252.814 70 251.815 70.1953 250.637 70.1953C249.888 70.1953 249.188 70.1302 248.537 70C247.893 69.8698 247.336 69.6745 246.867 69.4141V67.3438C247.355 67.6172 247.941 67.8418 248.625 68.0176C249.309 68.1868 249.963 68.2715 250.588 68.2715C251.252 68.2715 251.822 68.1738 252.297 67.9785C252.772 67.7832 253.137 67.4837 253.391 67.0801C253.651 66.6764 253.781 66.1654 253.781 65.5469C253.781 64.7266 253.518 64.0951 252.99 63.6523C252.469 63.2031 251.652 62.9785 250.539 62.9785C250.148 62.9785 249.732 63.0143 249.289 63.0859C248.853 63.151 248.488 63.2227 248.195 63.3008L247.189 62.7051L247.727 55.7227H255.148V57.7441H249.748L249.436 61.2988C249.67 61.2467 249.95 61.1979 250.275 61.1523C250.601 61.1003 251.005 61.0742 251.486 61.0742Z" fill="#1C2B39"/>
<defs>
<filter id="filter0_d_2_8336" x="0.5" y="-25" width="110" height="135" filterUnits="userSpaceOnUse" color-interpolation-filters="sRGB">
<feFlood flood-opacity="0" result="BackgroundImageFix"/>
<feColorMatrix in="SourceAlpha" type="matrix" values="0 0 0 0 0 0 0 0 0 0 0 0 0 0 0 0 0 0 127 0" result="hardAlpha"/>
<feOffset/>
<feGaussianBlur stdDeviation="12.5"/>
<feComposite in2="hardAlpha" operator="out"/>
<feColorMatrix type="matrix" values="0 0 0 0 0 0 0 0 0 0 0 0 0 0 0 0 0 0 0.08 0"/>
<feBlend mode="normal" in2="BackgroundImageFix" result="effect1_dropShadow_2_8336"/>
<feBlend mode="normal" in="SourceGraphic" in2="effect1_dropShadow_2_8336" result="shape"/>
</filter>
</defs>
</svg>
