<svg width="681" height="181" viewBox="0 0 681 181" fill="none" xmlns="http://www.w3.org/2000/svg">
<rect x="39.14" y="50.5" width="74" height="74" rx="37" fill="#FCFCFC"/>
<path d="M75.58 76.9375C83.0722 76.9375 89.1425 83.0078 89.1425 90.5C89.1425 97.9922 83.0722 104.062 75.58 104.062C68.0878 104.062 62.0175 97.9922 62.0175 90.5C62.0175 83.0078 68.0878 76.9375 75.58 76.9375ZM75.58 101.438C81.5956 101.438 86.5175 96.5703 86.5175 90.5C86.5175 84.4844 81.5956 79.5625 75.58 79.5625C69.5097 79.5625 64.6425 84.4844 64.6425 90.5C64.6425 96.5703 69.5097 101.438 75.58 101.438ZM80.1738 93.6172C80.6113 93.0703 81.4316 93.0156 81.9785 93.4531C82.58 93.8906 82.6347 94.7656 82.1425 95.3125C80.5019 97.2812 78.0956 98.375 75.58 98.375C73.0097 98.375 70.6035 97.2812 68.9628 95.3125C68.4706 94.7656 68.58 93.8906 69.1269 93.4531C69.6738 93.0156 70.4941 93.0703 70.9863 93.6172C72.08 94.9844 73.7753 95.75 75.58 95.75C77.33 95.75 79.0253 94.9844 80.1738 93.6172ZM69.455 88.0391L68.9628 88.9688C68.8535 89.1875 68.6347 89.2422 68.416 89.1875C68.2519 89.1328 68.0878 88.9688 68.1425 88.75C68.3066 86.4531 69.8925 84.8125 71.205 84.8125C72.4628 84.8125 74.0488 86.4531 74.2675 88.75C74.2675 88.9688 74.1035 89.1328 73.9394 89.1875C73.7753 89.2422 73.5566 89.1875 73.4472 88.9688L72.9003 88.0391C72.4628 87.3281 71.8613 86.8906 71.205 86.8906C70.4941 86.8906 69.8925 87.3281 69.455 88.0391ZM79.955 84.8125C81.2128 84.8125 82.7988 86.4531 83.0175 88.75C83.0175 88.9688 82.8535 89.1328 82.6894 89.1875C82.5253 89.2422 82.3066 89.1875 82.1972 88.9688L81.6503 88.0391C81.2128 87.3281 80.6113 86.8906 79.955 86.8906C79.2441 86.8906 78.6425 87.3281 78.205 88.0391L77.7128 88.9688C77.6035 89.1875 77.3847 89.2422 77.166 89.1875C77.0019 89.1328 76.8378 88.9688 76.8925 88.75C77.0566 86.4531 78.6425 84.8125 79.955 84.8125Z" fill="#FECE01"/>
<rect x="39.14" y="50.5" width="74" height="74" rx="37" stroke="#DDDDDD"/>
<rect x="79.6104" y="28.5" width="72.17" height="43" rx="3.5" fill="white"/>
<path d="M102.013 48.2891C103.114 48.2891 104.083 48.4883 104.919 48.8867C105.763 49.2773 106.419 49.8555 106.888 50.6211C107.356 51.3789 107.591 52.3086 107.591 53.4102C107.591 54.6133 107.337 55.6523 106.829 56.5273C106.321 57.3945 105.575 58.0625 104.591 58.5312C103.606 59 102.407 59.2344 100.993 59.2344C100.095 59.2344 99.2549 59.1562 98.4736 59C97.7002 58.8438 97.0322 58.6094 96.4697 58.2969V55.8125C97.0557 56.1406 97.7588 56.4102 98.5791 56.6211C99.3994 56.8242 100.185 56.9258 100.935 56.9258C101.731 56.9258 102.415 56.8086 102.985 56.5742C103.556 56.3398 103.993 55.9805 104.298 55.4961C104.61 55.0117 104.767 54.3984 104.767 53.6562C104.767 52.6719 104.45 51.9141 103.817 51.3828C103.192 50.8438 102.212 50.5742 100.876 50.5742C100.407 50.5742 99.9072 50.6172 99.376 50.7031C98.8525 50.7812 98.415 50.8672 98.0635 50.9609L96.8564 50.2461L97.501 41.8672H106.407V44.293H99.9268L99.5518 48.5586C99.833 48.4961 100.169 48.4375 100.56 48.3828C100.95 48.3203 101.435 48.2891 102.013 48.2891ZM121.524 50.4219C121.524 51.8047 121.415 53.043 121.196 54.1367C120.985 55.2227 120.649 56.1445 120.188 56.9023C119.728 57.6602 119.126 58.2383 118.384 58.6367C117.642 59.0352 116.743 59.2344 115.688 59.2344C114.368 59.2344 113.278 58.8867 112.419 58.1914C111.56 57.4883 110.923 56.4805 110.509 55.168C110.095 53.8477 109.888 52.2656 109.888 50.4219C109.888 48.5781 110.075 47 110.45 45.6875C110.833 44.3672 111.45 43.3555 112.302 42.6523C113.153 41.9492 114.282 41.5977 115.688 41.5977C117.017 41.5977 118.11 41.9492 118.97 42.6523C119.837 43.3477 120.478 44.3555 120.892 45.6758C121.313 46.9883 121.524 48.5703 121.524 50.4219ZM112.665 50.4219C112.665 51.8672 112.759 53.0742 112.946 54.043C113.142 55.0117 113.462 55.7383 113.907 56.2227C114.353 56.6992 114.946 56.9375 115.688 56.9375C116.431 56.9375 117.024 56.6992 117.47 56.2227C117.915 55.7461 118.235 55.0234 118.431 54.0547C118.634 53.0859 118.735 51.875 118.735 50.4219C118.735 48.9844 118.638 47.7812 118.442 46.8125C118.247 45.8438 117.927 45.1172 117.481 44.6328C117.036 44.1406 116.438 43.8945 115.688 43.8945C114.938 43.8945 114.341 44.1406 113.896 44.6328C113.458 45.1172 113.142 45.8438 112.946 46.8125C112.759 47.7812 112.665 48.9844 112.665 50.4219ZM135.259 50.4219C135.259 51.8047 135.149 53.043 134.931 54.1367C134.72 55.2227 134.384 56.1445 133.923 56.9023C133.462 57.6602 132.86 58.2383 132.118 58.6367C131.376 59.0352 130.478 59.2344 129.423 59.2344C128.103 59.2344 127.013 58.8867 126.153 58.1914C125.294 57.4883 124.657 56.4805 124.243 55.168C123.829 53.8477 123.622 52.2656 123.622 50.4219C123.622 48.5781 123.81 47 124.185 45.6875C124.567 44.3672 125.185 43.3555 126.036 42.6523C126.888 41.9492 128.017 41.5977 129.423 41.5977C130.751 41.5977 131.845 41.9492 132.704 42.6523C133.571 43.3477 134.212 44.3555 134.626 45.6758C135.048 46.9883 135.259 48.5703 135.259 50.4219ZM126.399 50.4219C126.399 51.8672 126.493 53.0742 126.681 54.043C126.876 55.0117 127.196 55.7383 127.642 56.2227C128.087 56.6992 128.681 56.9375 129.423 56.9375C130.165 56.9375 130.759 56.6992 131.204 56.2227C131.649 55.7461 131.97 55.0234 132.165 54.0547C132.368 53.0859 132.47 51.875 132.47 50.4219C132.47 48.9844 132.372 47.7812 132.177 46.8125C131.981 45.8438 131.661 45.1172 131.216 44.6328C130.771 44.1406 130.173 43.8945 129.423 43.8945C128.673 43.8945 128.075 44.1406 127.63 44.6328C127.192 45.1172 126.876 45.8438 126.681 46.8125C126.493 47.7812 126.399 48.9844 126.399 50.4219Z" fill="#444444"/>
<rect x="79.6104" y="28.5" width="72.17" height="43" rx="3.5" stroke="#DDDDDD"/>
<path d="M10.5078 159H8.64062V153.844H3.375V159H1.5V147.578H3.375V152.25H8.64062V147.578H10.5078V159ZM17.7344 150.188C18.8281 150.188 19.6536 150.43 20.2109 150.914C20.7734 151.398 21.0547 152.154 21.0547 153.18V159H19.75L19.3984 157.773H19.3359C19.0911 158.086 18.8385 158.344 18.5781 158.547C18.3177 158.75 18.0156 158.901 17.6719 159C17.3333 159.104 16.9193 159.156 16.4297 159.156C15.9141 159.156 15.4531 159.062 15.0469 158.875C14.6406 158.682 14.3203 158.391 14.0859 158C13.8516 157.609 13.7344 157.115 13.7344 156.516C13.7344 155.625 14.0651 154.956 14.7266 154.508C15.3932 154.06 16.3984 153.812 17.7422 153.766L19.2422 153.711V153.258C19.2422 152.659 19.1016 152.232 18.8203 151.977C18.5443 151.721 18.1536 151.594 17.6484 151.594C17.2161 151.594 16.7969 151.656 16.3906 151.781C15.9844 151.906 15.5885 152.06 15.2031 152.242L14.6094 150.945C15.0312 150.721 15.5104 150.539 16.0469 150.398C16.5885 150.258 17.151 150.188 17.7344 150.188ZM19.2344 154.867L18.1172 154.906C17.2005 154.938 16.5573 155.094 16.1875 155.375C15.8177 155.656 15.6328 156.042 15.6328 156.531C15.6328 156.958 15.7604 157.271 16.0156 157.469C16.2708 157.661 16.6068 157.758 17.0234 157.758C17.6589 157.758 18.1849 157.578 18.6016 157.219C19.0234 156.854 19.2344 156.32 19.2344 155.617V154.867ZM29.0625 150.188C30.0885 150.188 30.9115 150.562 31.5312 151.312C32.1562 152.062 32.4688 153.177 32.4688 154.656C32.4688 155.635 32.3229 156.461 32.0312 157.133C31.7448 157.799 31.3411 158.305 30.8203 158.648C30.3047 158.987 29.7031 159.156 29.0156 159.156C28.5781 159.156 28.1979 159.099 27.875 158.984C27.5521 158.87 27.276 158.721 27.0469 158.539C26.8177 158.352 26.625 158.148 26.4688 157.93H26.3594C26.3854 158.138 26.4089 158.37 26.4297 158.625C26.4557 158.875 26.4688 159.104 26.4688 159.312V162.836H24.625V150.352H26.125L26.3828 151.547H26.4688C26.6302 151.302 26.8255 151.076 27.0547 150.867C27.2891 150.659 27.5703 150.495 27.8984 150.375C28.2318 150.25 28.6198 150.188 29.0625 150.188ZM28.5703 151.688C28.0651 151.688 27.6589 151.789 27.3516 151.992C27.0495 152.19 26.8281 152.49 26.6875 152.891C26.5521 153.292 26.4792 153.794 26.4688 154.398V154.656C26.4688 155.297 26.5339 155.841 26.6641 156.289C26.7995 156.732 27.0208 157.07 27.3281 157.305C27.6406 157.534 28.0625 157.648 28.5938 157.648C29.0417 157.648 29.4115 157.526 29.7031 157.281C30 157.036 30.2214 156.688 30.3672 156.234C30.513 155.781 30.5859 155.247 30.5859 154.633C30.5859 153.701 30.4193 152.977 30.0859 152.461C29.7578 151.945 29.2526 151.688 28.5703 151.688ZM40.0312 150.188C41.0573 150.188 41.8802 150.562 42.5 151.312C43.125 152.062 43.4375 153.177 43.4375 154.656C43.4375 155.635 43.2917 156.461 43 157.133C42.7135 157.799 42.3099 158.305 41.7891 158.648C41.2734 158.987 40.6719 159.156 39.9844 159.156C39.5469 159.156 39.1667 159.099 38.8438 158.984C38.5208 158.87 38.2448 158.721 38.0156 158.539C37.7865 158.352 37.5938 158.148 37.4375 157.93H37.3281C37.3542 158.138 37.3776 158.37 37.3984 158.625C37.4245 158.875 37.4375 159.104 37.4375 159.312V162.836H35.5938V150.352H37.0938L37.3516 151.547H37.4375C37.599 151.302 37.7943 151.076 38.0234 150.867C38.2578 150.659 38.5391 150.495 38.8672 150.375C39.2005 150.25 39.5885 150.188 40.0312 150.188ZM39.5391 151.688C39.0339 151.688 38.6276 151.789 38.3203 151.992C38.0182 152.19 37.7969 152.49 37.6562 152.891C37.5208 153.292 37.4479 153.794 37.4375 154.398V154.656C37.4375 155.297 37.5026 155.841 37.6328 156.289C37.7682 156.732 37.9896 157.07 38.2969 157.305C38.6094 157.534 39.0312 157.648 39.5625 157.648C40.0104 157.648 40.3802 157.526 40.6719 157.281C40.9688 157.036 41.1901 156.688 41.3359 156.234C41.4818 155.781 41.5547 155.247 41.5547 154.633C41.5547 153.701 41.388 152.977 41.0547 152.461C40.7266 151.945 40.2214 151.688 39.5391 151.688ZM45.2578 150.352H47.2578L49.0312 155.289C49.1094 155.513 49.1797 155.734 49.2422 155.953C49.3099 156.167 49.3672 156.378 49.4141 156.586C49.4661 156.794 49.5078 157.003 49.5391 157.211H49.5859C49.638 156.94 49.7109 156.638 49.8047 156.305C49.9036 155.966 50.013 155.628 50.1328 155.289L51.8359 150.352H53.8125L50.1016 160.188C49.888 160.75 49.625 161.229 49.3125 161.625C49.0052 162.026 48.6406 162.328 48.2188 162.531C47.7969 162.74 47.3151 162.844 46.7734 162.844C46.513 162.844 46.2865 162.828 46.0938 162.797C45.901 162.771 45.737 162.742 45.6016 162.711V161.242C45.7109 161.268 45.849 161.292 46.0156 161.312C46.1823 161.333 46.3542 161.344 46.5312 161.344C46.8594 161.344 47.1432 161.279 47.3828 161.148C47.6224 161.018 47.8255 160.833 47.9922 160.594C48.1589 160.359 48.2969 160.091 48.4062 159.789L48.7109 158.977L45.2578 150.352ZM66.3359 149.008C65.7891 149.008 65.2995 149.107 64.8672 149.305C64.4401 149.503 64.0781 149.789 63.7812 150.164C63.4844 150.534 63.2578 150.984 63.1016 151.516C62.9453 152.042 62.8672 152.635 62.8672 153.297C62.8672 154.182 62.9922 154.945 63.2422 155.586C63.4922 156.221 63.8724 156.711 64.3828 157.055C64.8932 157.393 65.5391 157.562 66.3203 157.562C66.8047 157.562 67.276 157.516 67.7344 157.422C68.1927 157.328 68.6667 157.201 69.1562 157.039V158.633C68.6927 158.815 68.224 158.948 67.75 159.031C67.276 159.115 66.7292 159.156 66.1094 159.156C64.9427 159.156 63.974 158.914 63.2031 158.43C62.4375 157.945 61.8646 157.263 61.4844 156.383C61.1094 155.503 60.9219 154.471 60.9219 153.289C60.9219 152.424 61.0417 151.633 61.2812 150.914C61.5208 150.195 61.8698 149.576 62.3281 149.055C62.7865 148.529 63.3516 148.125 64.0234 147.844C64.7005 147.557 65.474 147.414 66.3438 147.414C66.9167 147.414 67.4792 147.479 68.0312 147.609C68.5885 147.734 69.1042 147.914 69.5781 148.148L68.9219 149.695C68.526 149.508 68.112 149.346 67.6797 149.211C67.2474 149.076 66.7995 149.008 66.3359 149.008ZM79.9609 150.352V159H78.5156L78.2656 157.836H78.1641C77.9818 158.133 77.75 158.38 77.4688 158.578C77.1875 158.771 76.875 158.914 76.5312 159.008C76.1875 159.107 75.8255 159.156 75.4453 159.156C74.7943 159.156 74.237 159.047 73.7734 158.828C73.3151 158.604 72.9635 158.26 72.7188 157.797C72.474 157.333 72.3516 156.734 72.3516 156V150.352H74.1953V155.656C74.1953 156.328 74.3307 156.831 74.6016 157.164C74.8776 157.497 75.3047 157.664 75.8828 157.664C76.4401 157.664 76.8828 157.549 77.2109 157.32C77.5391 157.091 77.7708 156.753 77.9062 156.305C78.0469 155.857 78.1172 155.307 78.1172 154.656V150.352H79.9609ZM89.4062 156.531C89.4062 157.099 89.2682 157.578 88.9922 157.969C88.7161 158.359 88.3125 158.656 87.7812 158.859C87.2552 159.057 86.6094 159.156 85.8438 159.156C85.2396 159.156 84.7188 159.112 84.2812 159.023C83.849 158.94 83.4401 158.81 83.0547 158.633V157.047C83.4661 157.24 83.9271 157.406 84.4375 157.547C84.9531 157.688 85.4401 157.758 85.8984 157.758C86.5026 157.758 86.9375 157.664 87.2031 157.477C87.4688 157.284 87.6016 157.029 87.6016 156.711C87.6016 156.523 87.5469 156.357 87.4375 156.211C87.3333 156.06 87.1354 155.906 86.8438 155.75C86.5573 155.589 86.1354 155.396 85.5781 155.172C85.0312 154.953 84.5703 154.734 84.1953 154.516C83.8203 154.297 83.5365 154.034 83.3438 153.727C83.151 153.414 83.0547 153.016 83.0547 152.531C83.0547 151.766 83.3568 151.185 83.9609 150.789C84.5703 150.388 85.375 150.188 86.375 150.188C86.9062 150.188 87.4062 150.242 87.875 150.352C88.349 150.456 88.8125 150.609 89.2656 150.812L88.6875 152.195C88.2969 152.023 87.9036 151.883 87.5078 151.773C87.1172 151.659 86.7188 151.602 86.3125 151.602C85.8385 151.602 85.4766 151.674 85.2266 151.82C84.9818 151.966 84.8594 152.174 84.8594 152.445C84.8594 152.648 84.9193 152.82 85.0391 152.961C85.1589 153.102 85.3646 153.242 85.6562 153.383C85.9531 153.523 86.3646 153.698 86.8906 153.906C87.4062 154.104 87.8516 154.312 88.2266 154.531C88.6068 154.745 88.8984 155.008 89.1016 155.32C89.3047 155.633 89.4062 156.036 89.4062 156.531ZM95.6094 157.672C95.849 157.672 96.0859 157.651 96.3203 157.609C96.5547 157.562 96.7682 157.508 96.9609 157.445V158.836C96.7578 158.924 96.4948 159 96.1719 159.062C95.849 159.125 95.513 159.156 95.1641 159.156C94.6745 159.156 94.2344 159.076 93.8438 158.914C93.4531 158.747 93.1432 158.464 92.9141 158.062C92.6849 157.661 92.5703 157.107 92.5703 156.398V151.75H91.3906V150.93L92.6562 150.281L93.2578 148.43H94.4141V150.352H96.8906V151.75H94.4141V156.375C94.4141 156.812 94.5234 157.138 94.7422 157.352C94.9609 157.565 95.25 157.672 95.6094 157.672ZM107.375 154.656C107.375 155.375 107.281 156.013 107.094 156.57C106.906 157.128 106.633 157.599 106.273 157.984C105.914 158.365 105.482 158.656 104.977 158.859C104.471 159.057 103.901 159.156 103.266 159.156C102.672 159.156 102.128 159.057 101.633 158.859C101.138 158.656 100.708 158.365 100.344 157.984C99.9844 157.599 99.7057 157.128 99.5078 156.57C99.3099 156.013 99.2109 155.375 99.2109 154.656C99.2109 153.703 99.375 152.896 99.7031 152.234C100.036 151.568 100.51 151.06 101.125 150.711C101.74 150.362 102.471 150.188 103.32 150.188C104.117 150.188 104.82 150.362 105.43 150.711C106.039 151.06 106.516 151.568 106.859 152.234C107.203 152.901 107.375 153.708 107.375 154.656ZM101.102 154.656C101.102 155.286 101.177 155.826 101.328 156.273C101.484 156.721 101.724 157.065 102.047 157.305C102.37 157.539 102.786 157.656 103.297 157.656C103.807 157.656 104.224 157.539 104.547 157.305C104.87 157.065 105.107 156.721 105.258 156.273C105.409 155.826 105.484 155.286 105.484 154.656C105.484 154.026 105.409 153.492 105.258 153.055C105.107 152.612 104.87 152.276 104.547 152.047C104.224 151.812 103.805 151.695 103.289 151.695C102.529 151.695 101.974 151.951 101.625 152.461C101.276 152.971 101.102 153.703 101.102 154.656ZM120.258 150.188C121.227 150.188 121.956 150.438 122.445 150.938C122.94 151.438 123.188 152.24 123.188 153.344V159H121.352V153.672C121.352 153.016 121.224 152.521 120.969 152.188C120.714 151.854 120.326 151.688 119.805 151.688C119.076 151.688 118.549 151.922 118.227 152.391C117.909 152.854 117.75 153.529 117.75 154.414V159H115.914V153.672C115.914 153.234 115.857 152.87 115.742 152.578C115.633 152.281 115.464 152.06 115.234 151.914C115.005 151.763 114.716 151.688 114.367 151.688C113.862 151.688 113.458 151.802 113.156 152.031C112.859 152.26 112.646 152.599 112.516 153.047C112.385 153.49 112.32 154.034 112.32 154.68V159H110.484V150.352H111.914L112.172 151.516H112.273C112.451 151.214 112.669 150.966 112.93 150.773C113.195 150.576 113.49 150.43 113.812 150.336C114.135 150.237 114.471 150.188 114.82 150.188C115.466 150.188 116.01 150.302 116.453 150.531C116.896 150.755 117.227 151.099 117.445 151.562H117.586C117.857 151.094 118.234 150.747 118.719 150.523C119.203 150.299 119.716 150.188 120.258 150.188ZM130.195 150.188C130.966 150.188 131.628 150.346 132.18 150.664C132.732 150.982 133.156 151.432 133.453 152.016C133.75 152.599 133.898 153.297 133.898 154.109V155.094H128.125C128.146 155.932 128.37 156.578 128.797 157.031C129.229 157.484 129.833 157.711 130.609 157.711C131.161 157.711 131.656 157.659 132.094 157.555C132.536 157.445 132.992 157.286 133.461 157.078V158.57C133.029 158.773 132.589 158.922 132.141 159.016C131.693 159.109 131.156 159.156 130.531 159.156C129.682 159.156 128.935 158.992 128.289 158.664C127.648 158.331 127.146 157.836 126.781 157.18C126.422 156.523 126.242 155.708 126.242 154.734C126.242 153.766 126.406 152.943 126.734 152.266C127.062 151.589 127.523 151.073 128.117 150.719C128.711 150.365 129.404 150.188 130.195 150.188ZM130.195 151.57C129.617 151.57 129.148 151.758 128.789 152.133C128.435 152.508 128.227 153.057 128.164 153.781H132.102C132.096 153.349 132.023 152.966 131.883 152.633C131.747 152.299 131.539 152.039 131.258 151.852C130.982 151.664 130.628 151.57 130.195 151.57ZM141.352 150.188C141.497 150.188 141.656 150.195 141.828 150.211C142 150.227 142.148 150.247 142.273 150.273L142.102 151.992C141.992 151.961 141.857 151.938 141.695 151.922C141.539 151.906 141.398 151.898 141.273 151.898C140.945 151.898 140.633 151.953 140.336 152.062C140.039 152.167 139.776 152.328 139.547 152.547C139.318 152.76 139.138 153.029 139.008 153.352C138.878 153.674 138.812 154.049 138.812 154.477V159H136.969V150.352H138.406L138.656 151.875H138.742C138.914 151.568 139.128 151.286 139.383 151.031C139.638 150.776 139.93 150.573 140.258 150.422C140.591 150.266 140.956 150.188 141.352 150.188ZM150.688 156.531C150.688 157.099 150.549 157.578 150.273 157.969C149.997 158.359 149.594 158.656 149.062 158.859C148.536 159.057 147.891 159.156 147.125 159.156C146.521 159.156 146 159.112 145.562 159.023C145.13 158.94 144.721 158.81 144.336 158.633V157.047C144.747 157.24 145.208 157.406 145.719 157.547C146.234 157.688 146.721 157.758 147.18 157.758C147.784 157.758 148.219 157.664 148.484 157.477C148.75 157.284 148.883 157.029 148.883 156.711C148.883 156.523 148.828 156.357 148.719 156.211C148.615 156.06 148.417 155.906 148.125 155.75C147.839 155.589 147.417 155.396 146.859 155.172C146.312 154.953 145.852 154.734 145.477 154.516C145.102 154.297 144.818 154.034 144.625 153.727C144.432 153.414 144.336 153.016 144.336 152.531C144.336 151.766 144.638 151.185 145.242 150.789C145.852 150.388 146.656 150.188 147.656 150.188C148.188 150.188 148.688 150.242 149.156 150.352C149.63 150.456 150.094 150.609 150.547 150.812L149.969 152.195C149.578 152.023 149.185 151.883 148.789 151.773C148.398 151.659 148 151.602 147.594 151.602C147.12 151.602 146.758 151.674 146.508 151.82C146.263 151.966 146.141 152.174 146.141 152.445C146.141 152.648 146.201 152.82 146.32 152.961C146.44 153.102 146.646 153.242 146.938 153.383C147.234 153.523 147.646 153.698 148.172 153.906C148.688 154.104 149.133 154.312 149.508 154.531C149.888 154.745 150.18 155.008 150.383 155.32C150.586 155.633 150.688 156.036 150.688 156.531Z" fill="#777777"/>
<rect x="102.28" y="178" width="50" height="3" fill="#FECE01"/>
<rect x="255.72" y="50.5" width="74" height="74" rx="37" fill="#FCFCFC"/>
<path d="M306.009 86.125C306.447 86.125 306.775 86.5625 306.665 86.9453L306.337 88.2578C306.283 88.5859 306.009 88.75 305.736 88.75H304.587C305.353 89.4062 305.845 90.3359 305.845 91.375V94C305.845 94.9297 305.462 95.6953 304.97 96.2969V99.25C304.97 100.234 304.15 101 303.22 101H301.47C300.486 101 299.72 100.234 299.72 99.25V97.5H285.72V99.25C285.72 100.234 284.9 101 283.97 101H282.22C281.236 101 280.47 100.234 280.47 99.25V96.2969C279.923 95.6953 279.595 94.9297 279.595 94V91.375C279.595 90.3359 280.033 89.4062 280.798 88.75H279.704C279.376 88.75 279.103 88.5859 279.048 88.2578L278.72 86.9453C278.611 86.5625 278.939 86.125 279.376 86.125H282.603L283.533 83.8828C284.462 81.5312 286.704 80 289.22 80H296.165C298.681 80 300.923 81.5312 301.853 83.8828L302.783 86.125H306.009ZM286.759 85.1953L285.72 87.875H299.72L298.626 85.1953C298.189 84.1562 297.259 83.5 296.165 83.5H289.22C288.126 83.5 287.197 84.1562 286.759 85.1953ZM283.97 94C285.009 94 286.595 94.1641 286.595 93.125C286.595 92.0859 285.009 90.5 283.97 90.5C282.876 90.5 282.22 91.2109 282.22 92.25C282.22 93.3438 282.876 94 283.97 94ZM301.47 94C302.509 94 303.22 93.3438 303.22 92.25C303.22 91.2109 302.509 90.5 301.47 90.5C300.376 90.5 298.845 92.0859 298.845 93.125C298.845 94.1641 300.376 94 301.47 94Z" fill="#FECE01"/>
<rect x="255.72" y="50.5" width="74" height="74" rx="37" stroke="#DDDDDD"/>
<rect x="271.33" y="28.5" width="72.17" height="43" rx="3.5" fill="white"/>
<path d="M299.51 59H287.908V56.9258L292.35 52.4258C293.209 51.5508 293.916 50.7969 294.471 50.1641C295.025 49.5234 295.435 48.918 295.701 48.3477C295.975 47.7773 296.111 47.1562 296.111 46.4844C296.111 45.6562 295.873 45.0312 295.396 44.6094C294.92 44.1797 294.291 43.9648 293.51 43.9648C292.768 43.9648 292.08 44.1133 291.447 44.4102C290.822 44.6992 290.174 45.1133 289.502 45.6523L287.99 43.8359C288.467 43.4297 288.975 43.0586 289.514 42.7227C290.06 42.3867 290.67 42.1211 291.342 41.9258C292.014 41.7227 292.779 41.6211 293.639 41.6211C294.725 41.6211 295.662 41.8164 296.451 42.207C297.24 42.5898 297.846 43.125 298.268 43.8125C298.697 44.5 298.912 45.3008 298.912 46.2148C298.912 47.1367 298.728 47.9883 298.361 48.7695C297.994 49.5508 297.471 50.3242 296.791 51.0898C296.111 51.8477 295.303 52.6719 294.365 53.5625L291.4 56.457V56.5859H299.51V59ZM313.244 50.4219C313.244 51.8047 313.135 53.043 312.916 54.1367C312.705 55.2227 312.369 56.1445 311.908 56.9023C311.447 57.6602 310.846 58.2383 310.103 58.6367C309.361 59.0352 308.463 59.2344 307.408 59.2344C306.088 59.2344 304.998 58.8867 304.139 58.1914C303.279 57.4883 302.643 56.4805 302.228 55.168C301.814 53.8477 301.607 52.2656 301.607 50.4219C301.607 48.5781 301.795 47 302.17 45.6875C302.553 44.3672 303.17 43.3555 304.021 42.6523C304.873 41.9492 306.002 41.5977 307.408 41.5977C308.736 41.5977 309.83 41.9492 310.689 42.6523C311.557 43.3477 312.197 44.3555 312.611 45.6758C313.033 46.9883 313.244 48.5703 313.244 50.4219ZM304.385 50.4219C304.385 51.8672 304.478 53.0742 304.666 54.043C304.861 55.0117 305.182 55.7383 305.627 56.2227C306.072 56.6992 306.666 56.9375 307.408 56.9375C308.15 56.9375 308.744 56.6992 309.189 56.2227C309.635 55.7461 309.955 55.0234 310.15 54.0547C310.353 53.0859 310.455 51.875 310.455 50.4219C310.455 48.9844 310.357 47.7812 310.162 46.8125C309.967 45.8438 309.646 45.1172 309.201 44.6328C308.756 44.1406 308.158 43.8945 307.408 43.8945C306.658 43.8945 306.06 44.1406 305.615 44.6328C305.178 45.1172 304.861 45.8438 304.666 46.8125C304.478 47.7812 304.385 48.9844 304.385 50.4219ZM326.978 50.4219C326.978 51.8047 326.869 53.043 326.65 54.1367C326.439 55.2227 326.103 56.1445 325.643 56.9023C325.182 57.6602 324.58 58.2383 323.838 58.6367C323.096 59.0352 322.197 59.2344 321.143 59.2344C319.822 59.2344 318.732 58.8867 317.873 58.1914C317.014 57.4883 316.377 56.4805 315.963 55.168C315.549 53.8477 315.342 52.2656 315.342 50.4219C315.342 48.5781 315.529 47 315.904 45.6875C316.287 44.3672 316.904 43.3555 317.756 42.6523C318.607 41.9492 319.736 41.5977 321.143 41.5977C322.471 41.5977 323.564 41.9492 324.424 42.6523C325.291 43.3477 325.932 44.3555 326.346 45.6758C326.768 46.9883 326.978 48.5703 326.978 50.4219ZM318.119 50.4219C318.119 51.8672 318.213 53.0742 318.4 54.043C318.596 55.0117 318.916 55.7383 319.361 56.2227C319.807 56.6992 320.4 56.9375 321.143 56.9375C321.885 56.9375 322.478 56.6992 322.924 56.2227C323.369 55.7461 323.689 55.0234 323.885 54.0547C324.088 53.0859 324.189 51.875 324.189 50.4219C324.189 48.9844 324.092 47.7812 323.896 46.8125C323.701 45.8438 323.381 45.1172 322.935 44.6328C322.49 44.1406 321.893 43.8945 321.143 43.8945C320.393 43.8945 319.795 44.1406 319.35 44.6328C318.912 45.1172 318.596 45.8438 318.4 46.8125C318.213 47.7812 318.119 48.9844 318.119 50.4219Z" fill="#444444"/>
<rect x="271.33" y="28.5" width="72.17" height="43" rx="3.5" stroke="#DDDDDD"/>
<path d="M242.94 159V147.578H244.815V157.406H249.667V159H242.94ZM259.995 150.352V159H258.549L258.299 157.836H258.198C258.016 158.133 257.784 158.38 257.503 158.578C257.221 158.771 256.909 158.914 256.565 159.008C256.221 159.107 255.859 159.156 255.479 159.156C254.828 159.156 254.271 159.047 253.807 158.828C253.349 158.604 252.997 158.26 252.753 157.797C252.508 157.333 252.385 156.734 252.385 156V150.352H254.229V155.656C254.229 156.328 254.364 156.831 254.635 157.164C254.911 157.497 255.338 157.664 255.917 157.664C256.474 157.664 256.917 157.549 257.245 157.32C257.573 157.091 257.805 156.753 257.94 156.305C258.081 155.857 258.151 155.307 258.151 154.656V150.352H259.995ZM265.542 154.578L262.651 150.352H264.745L266.721 153.391L268.706 150.352H270.792L267.885 154.578L270.94 159H268.838L266.721 155.758L264.596 159H262.51L265.542 154.578ZM280.979 150.352V159H279.534L279.284 157.836H279.182C279 158.133 278.768 158.38 278.487 158.578C278.206 158.771 277.893 158.914 277.549 159.008C277.206 159.107 276.844 159.156 276.463 159.156C275.812 159.156 275.255 159.047 274.792 158.828C274.333 158.604 273.982 158.26 273.737 157.797C273.492 157.333 273.37 156.734 273.37 156V150.352H275.213V155.656C275.213 156.328 275.349 156.831 275.62 157.164C275.896 157.497 276.323 157.664 276.901 157.664C277.458 157.664 277.901 157.549 278.229 157.32C278.557 157.091 278.789 156.753 278.924 156.305C279.065 155.857 279.135 155.307 279.135 154.656V150.352H280.979ZM288.995 150.188C289.141 150.188 289.299 150.195 289.471 150.211C289.643 150.227 289.792 150.247 289.917 150.273L289.745 151.992C289.635 151.961 289.5 151.938 289.338 151.922C289.182 151.906 289.042 151.898 288.917 151.898C288.588 151.898 288.276 151.953 287.979 152.062C287.682 152.167 287.419 152.328 287.19 152.547C286.961 152.76 286.781 153.029 286.651 153.352C286.521 153.674 286.456 154.049 286.456 154.477V159H284.612V150.352H286.049L286.299 151.875H286.385C286.557 151.568 286.771 151.286 287.026 151.031C287.281 150.776 287.573 150.573 287.901 150.422C288.234 150.266 288.599 150.188 288.995 150.188ZM291.213 150.352H293.213L294.987 155.289C295.065 155.513 295.135 155.734 295.198 155.953C295.266 156.167 295.323 156.378 295.37 156.586C295.422 156.794 295.463 157.003 295.495 157.211H295.542C295.594 156.94 295.667 156.638 295.76 156.305C295.859 155.966 295.969 155.628 296.088 155.289L297.792 150.352H299.768L296.057 160.188C295.844 160.75 295.581 161.229 295.268 161.625C294.961 162.026 294.596 162.328 294.174 162.531C293.753 162.74 293.271 162.844 292.729 162.844C292.469 162.844 292.242 162.828 292.049 162.797C291.857 162.771 291.693 162.742 291.557 162.711V161.242C291.667 161.268 291.805 161.292 291.971 161.312C292.138 161.333 292.31 161.344 292.487 161.344C292.815 161.344 293.099 161.279 293.338 161.148C293.578 161.018 293.781 160.833 293.948 160.594C294.114 160.359 294.253 160.091 294.362 159.789L294.667 158.977L291.213 150.352ZM312.292 149.008C311.745 149.008 311.255 149.107 310.823 149.305C310.396 149.503 310.034 149.789 309.737 150.164C309.44 150.534 309.213 150.984 309.057 151.516C308.901 152.042 308.823 152.635 308.823 153.297C308.823 154.182 308.948 154.945 309.198 155.586C309.448 156.221 309.828 156.711 310.338 157.055C310.849 157.393 311.495 157.562 312.276 157.562C312.76 157.562 313.232 157.516 313.69 157.422C314.148 157.328 314.622 157.201 315.112 157.039V158.633C314.648 158.815 314.18 158.948 313.706 159.031C313.232 159.115 312.685 159.156 312.065 159.156C310.898 159.156 309.93 158.914 309.159 158.43C308.393 157.945 307.82 157.263 307.44 156.383C307.065 155.503 306.878 154.471 306.878 153.289C306.878 152.424 306.997 151.633 307.237 150.914C307.476 150.195 307.825 149.576 308.284 149.055C308.742 148.529 309.307 148.125 309.979 147.844C310.656 147.557 311.43 147.414 312.299 147.414C312.872 147.414 313.435 147.479 313.987 147.609C314.544 147.734 315.06 147.914 315.534 148.148L314.878 149.695C314.482 149.508 314.068 149.346 313.635 149.211C313.203 149.076 312.755 149.008 312.292 149.008ZM321.768 150.188C322.862 150.188 323.687 150.43 324.245 150.914C324.807 151.398 325.088 152.154 325.088 153.18V159H323.784L323.432 157.773H323.37C323.125 158.086 322.872 158.344 322.612 158.547C322.351 158.75 322.049 158.901 321.706 159C321.367 159.104 320.953 159.156 320.463 159.156C319.948 159.156 319.487 159.062 319.081 158.875C318.674 158.682 318.354 158.391 318.12 158C317.885 157.609 317.768 157.115 317.768 156.516C317.768 155.625 318.099 154.956 318.76 154.508C319.427 154.06 320.432 153.812 321.776 153.766L323.276 153.711V153.258C323.276 152.659 323.135 152.232 322.854 151.977C322.578 151.721 322.187 151.594 321.682 151.594C321.25 151.594 320.831 151.656 320.424 151.781C320.018 151.906 319.622 152.06 319.237 152.242L318.643 150.945C319.065 150.721 319.544 150.539 320.081 150.398C320.622 150.258 321.185 150.188 321.768 150.188ZM323.268 154.867L322.151 154.906C321.234 154.938 320.591 155.094 320.221 155.375C319.851 155.656 319.667 156.042 319.667 156.531C319.667 156.958 319.794 157.271 320.049 157.469C320.305 157.661 320.641 157.758 321.057 157.758C321.693 157.758 322.219 157.578 322.635 157.219C323.057 156.854 323.268 156.32 323.268 155.617V154.867ZM333.042 150.188C333.187 150.188 333.346 150.195 333.518 150.211C333.69 150.227 333.838 150.247 333.963 150.273L333.792 151.992C333.682 151.961 333.547 151.938 333.385 151.922C333.229 151.906 333.088 151.898 332.963 151.898C332.635 151.898 332.323 151.953 332.026 152.062C331.729 152.167 331.466 152.328 331.237 152.547C331.008 152.76 330.828 153.029 330.698 153.352C330.568 153.674 330.503 154.049 330.503 154.477V159H328.659V150.352H330.096L330.346 151.875H330.432C330.604 151.568 330.818 151.286 331.073 151.031C331.328 150.776 331.62 150.573 331.948 150.422C332.281 150.266 332.646 150.188 333.042 150.188ZM342.378 156.531C342.378 157.099 342.239 157.578 341.963 157.969C341.687 158.359 341.284 158.656 340.753 158.859C340.226 159.057 339.581 159.156 338.815 159.156C338.211 159.156 337.69 159.112 337.253 159.023C336.82 158.94 336.411 158.81 336.026 158.633V157.047C336.437 157.24 336.898 157.406 337.409 157.547C337.924 157.688 338.411 157.758 338.87 157.758C339.474 157.758 339.909 157.664 340.174 157.477C340.44 157.284 340.573 157.029 340.573 156.711C340.573 156.523 340.518 156.357 340.409 156.211C340.305 156.06 340.107 155.906 339.815 155.75C339.529 155.589 339.107 155.396 338.549 155.172C338.003 154.953 337.542 154.734 337.167 154.516C336.792 154.297 336.508 154.034 336.315 153.727C336.122 153.414 336.026 153.016 336.026 152.531C336.026 151.766 336.328 151.185 336.932 150.789C337.542 150.388 338.346 150.188 339.346 150.188C339.878 150.188 340.378 150.242 340.846 150.352C341.32 150.456 341.784 150.609 342.237 150.812L341.659 152.195C341.268 152.023 340.875 151.883 340.479 151.773C340.088 151.659 339.69 151.602 339.284 151.602C338.81 151.602 338.448 151.674 338.198 151.82C337.953 151.966 337.831 152.174 337.831 152.445C337.831 152.648 337.891 152.82 338.01 152.961C338.13 153.102 338.336 153.242 338.628 153.383C338.924 153.523 339.336 153.698 339.862 153.906C340.378 154.104 340.823 154.312 341.198 154.531C341.578 154.745 341.87 155.008 342.073 155.32C342.276 155.633 342.378 156.036 342.378 156.531Z" fill="#777777"/>
<rect x="294" y="178" width="50" height="3" fill="#FECE01"/>
<rect x="458.08" y="50.5" width="74" height="74" rx="37" fill="#FCFCFC"/>
<path d="M510.939 96.9531L512.361 97.7734C512.525 97.8281 512.58 98.0469 512.525 98.2109C512.143 99.4141 511.541 100.453 510.721 101.383C510.611 101.492 510.393 101.547 510.228 101.438L508.807 100.617C508.205 101.109 507.549 101.547 506.783 101.766V103.406C506.783 103.625 506.674 103.789 506.51 103.789C505.307 104.062 504.103 104.062 502.846 103.789C502.682 103.789 502.572 103.625 502.572 103.406V101.766C501.807 101.547 501.15 101.109 500.549 100.617L499.127 101.438C498.963 101.547 498.744 101.492 498.635 101.383C497.814 100.453 497.158 99.4141 496.83 98.2109C496.775 98.0469 496.83 97.8281 496.994 97.7734L498.416 96.9531C498.252 96.1875 498.252 95.3672 498.416 94.6016L496.994 93.7812C496.83 93.7266 496.775 93.5078 496.83 93.3438C497.158 92.1406 497.814 91.1016 498.635 90.1719C498.744 90.0625 498.963 90.0078 499.127 90.1172L500.549 90.9375C501.15 90.4453 501.807 90.0078 502.572 89.7891V88.1484C502.572 87.9297 502.682 87.7656 502.846 87.7656C504.049 87.4922 505.252 87.4922 506.51 87.7656C506.674 87.7656 506.783 87.9297 506.783 88.1484V89.7891C507.549 90.0078 508.205 90.4453 508.807 90.9375L510.228 90.1172C510.393 90.0078 510.611 90.0625 510.721 90.1719C511.541 91.1016 512.143 92.1406 512.525 93.3438C512.58 93.5078 512.525 93.7266 512.361 93.7812L510.939 94.6016C511.103 95.3672 511.103 96.1875 510.939 96.9531ZM504.705 98.4297C506.127 98.4297 507.33 97.2266 507.33 95.75C507.33 94.3281 506.127 93.125 504.705 93.125C503.228 93.125 502.025 94.3281 502.025 95.75C502.025 97.2266 503.228 98.4297 504.705 98.4297ZM489.83 90.5C485.947 90.5 482.83 87.3828 482.83 83.5C482.83 79.6719 485.947 76.5 489.83 76.5C493.658 76.5 496.83 79.6719 496.83 83.5C496.83 87.3828 493.658 90.5 489.83 90.5ZM500.822 102.914V103.406C500.822 103.625 500.877 103.844 500.932 104.062C500.494 104.336 500.002 104.5 499.455 104.5H480.205C478.728 104.5 477.58 103.352 477.58 101.875V99.6328C477.58 95.5859 480.861 92.25 484.908 92.25H485.838C487.041 92.8516 488.408 93.125 489.83 93.125C491.252 93.125 492.564 92.8516 493.768 92.25H494.697C494.916 92.25 495.135 92.3047 495.353 92.3594C495.299 92.5234 495.189 92.6328 495.135 92.7969C494.861 93.7812 495.244 94.8203 496.119 95.3125L496.557 95.5859C496.557 95.6953 496.557 95.8594 496.557 95.9688L496.119 96.2422C495.244 96.7344 494.861 97.7734 495.135 98.7578C495.572 100.125 496.338 101.492 497.377 102.531C497.76 102.969 498.361 103.242 498.908 103.242C499.291 103.242 499.674 103.133 500.002 102.969L500.439 102.695C500.549 102.75 500.658 102.859 500.822 102.914Z" fill="#FECE01"/>
<rect x="458.08" y="50.5" width="74" height="74" rx="37" stroke="#DDDDDD"/>
<rect x="484.33" y="28.5" width="72.17" height="43" rx="3.5" fill="white"/>
<path d="M509.006 59H506.24V47.9727C506.24 47.6055 506.244 47.2383 506.252 46.8711C506.26 46.5039 506.268 46.1445 506.275 45.793C506.291 45.4414 506.31 45.1055 506.334 44.7852C506.17 44.9648 505.967 45.1602 505.725 45.3711C505.49 45.582 505.24 45.8008 504.975 46.0273L503.006 47.5977L501.623 45.8516L506.709 41.8672H509.006V59ZM520.467 48.2891C521.568 48.2891 522.537 48.4883 523.373 48.8867C524.217 49.2773 524.873 49.8555 525.342 50.6211C525.81 51.3789 526.045 52.3086 526.045 53.4102C526.045 54.6133 525.791 55.6523 525.283 56.5273C524.775 57.3945 524.029 58.0625 523.045 58.5312C522.06 59 520.861 59.2344 519.447 59.2344C518.549 59.2344 517.709 59.1562 516.928 59C516.154 58.8438 515.486 58.6094 514.924 58.2969V55.8125C515.51 56.1406 516.213 56.4102 517.033 56.6211C517.853 56.8242 518.639 56.9258 519.389 56.9258C520.185 56.9258 520.869 56.8086 521.439 56.5742C522.01 56.3398 522.447 55.9805 522.752 55.4961C523.064 55.0117 523.221 54.3984 523.221 53.6562C523.221 52.6719 522.904 51.9141 522.271 51.3828C521.646 50.8438 520.666 50.5742 519.33 50.5742C518.861 50.5742 518.361 50.6172 517.83 50.7031C517.307 50.7812 516.869 50.8672 516.518 50.9609L515.31 50.2461L515.955 41.8672H524.861V44.293H518.381L518.006 48.5586C518.287 48.4961 518.623 48.4375 519.014 48.3828C519.404 48.3203 519.889 48.2891 520.467 48.2891ZM539.978 50.4219C539.978 51.8047 539.869 53.043 539.65 54.1367C539.439 55.2227 539.103 56.1445 538.643 56.9023C538.182 57.6602 537.58 58.2383 536.838 58.6367C536.096 59.0352 535.197 59.2344 534.143 59.2344C532.822 59.2344 531.732 58.8867 530.873 58.1914C530.014 57.4883 529.377 56.4805 528.963 55.168C528.549 53.8477 528.342 52.2656 528.342 50.4219C528.342 48.5781 528.529 47 528.904 45.6875C529.287 44.3672 529.904 43.3555 530.756 42.6523C531.607 41.9492 532.736 41.5977 534.143 41.5977C535.471 41.5977 536.564 41.9492 537.424 42.6523C538.291 43.3477 538.932 44.3555 539.346 45.6758C539.768 46.9883 539.978 48.5703 539.978 50.4219ZM531.119 50.4219C531.119 51.8672 531.213 53.0742 531.4 54.043C531.596 55.0117 531.916 55.7383 532.361 56.2227C532.807 56.6992 533.4 56.9375 534.143 56.9375C534.885 56.9375 535.478 56.6992 535.924 56.2227C536.369 55.7461 536.689 55.0234 536.885 54.0547C537.088 53.0859 537.189 51.875 537.189 50.4219C537.189 48.9844 537.092 47.7812 536.896 46.8125C536.701 45.8438 536.381 45.1172 535.935 44.6328C535.49 44.1406 534.893 43.8945 534.143 43.8945C533.393 43.8945 532.795 44.1406 532.35 44.6328C531.912 45.1172 531.596 45.8438 531.4 46.8125C531.213 47.7812 531.119 48.9844 531.119 50.4219Z" fill="#444444"/>
<rect x="484.33" y="28.5" width="72.17" height="43" rx="3.5" stroke="#DDDDDD"/>
<path d="M441.129 159H434.66V147.578H441.129V149.156H436.535V152.258H440.84V153.828H436.535V157.414H441.129V159ZM446.324 154.578L443.433 150.352H445.527L447.504 153.391L449.488 150.352H451.574L448.668 154.578L451.723 159H449.621L447.504 155.758L445.379 159H443.293L446.324 154.578ZM458.66 150.188C459.686 150.188 460.509 150.562 461.129 151.312C461.754 152.062 462.066 153.177 462.066 154.656C462.066 155.635 461.92 156.461 461.629 157.133C461.342 157.799 460.939 158.305 460.418 158.648C459.902 158.987 459.301 159.156 458.613 159.156C458.176 159.156 457.795 159.099 457.473 158.984C457.15 158.87 456.874 158.721 456.644 158.539C456.415 158.352 456.223 158.148 456.066 157.93H455.957C455.983 158.138 456.006 158.37 456.027 158.625C456.053 158.875 456.066 159.104 456.066 159.312V162.836H454.223V150.352H455.723L455.98 151.547H456.066C456.228 151.302 456.423 151.076 456.652 150.867C456.887 150.659 457.168 150.495 457.496 150.375C457.829 150.25 458.217 150.188 458.66 150.188ZM458.168 151.688C457.663 151.688 457.256 151.789 456.949 151.992C456.647 152.19 456.426 152.49 456.285 152.891C456.15 153.292 456.077 153.794 456.066 154.398V154.656C456.066 155.297 456.131 155.841 456.262 156.289C456.397 156.732 456.618 157.07 456.926 157.305C457.238 157.534 457.66 157.648 458.191 157.648C458.639 157.648 459.009 157.526 459.301 157.281C459.598 157.036 459.819 156.688 459.965 156.234C460.111 155.781 460.183 155.247 460.183 154.633C460.183 153.701 460.017 152.977 459.683 152.461C459.355 151.945 458.85 151.688 458.168 151.688ZM468.637 150.188C469.407 150.188 470.069 150.346 470.621 150.664C471.173 150.982 471.598 151.432 471.894 152.016C472.191 152.599 472.34 153.297 472.34 154.109V155.094H466.566C466.587 155.932 466.811 156.578 467.238 157.031C467.67 157.484 468.275 157.711 469.051 157.711C469.603 157.711 470.098 157.659 470.535 157.555C470.978 157.445 471.433 157.286 471.902 157.078V158.57C471.47 158.773 471.03 158.922 470.582 159.016C470.134 159.109 469.598 159.156 468.973 159.156C468.124 159.156 467.376 158.992 466.73 158.664C466.09 158.331 465.587 157.836 465.223 157.18C464.863 156.523 464.683 155.708 464.683 154.734C464.683 153.766 464.848 152.943 465.176 152.266C465.504 151.589 465.965 151.073 466.558 150.719C467.152 150.365 467.845 150.188 468.637 150.188ZM468.637 151.57C468.058 151.57 467.59 151.758 467.23 152.133C466.876 152.508 466.668 153.057 466.605 153.781H470.543C470.538 153.349 470.465 152.966 470.324 152.633C470.189 152.299 469.98 152.039 469.699 151.852C469.423 151.664 469.069 151.57 468.637 151.57ZM479.793 150.188C479.939 150.188 480.098 150.195 480.269 150.211C480.441 150.227 480.59 150.247 480.715 150.273L480.543 151.992C480.433 151.961 480.298 151.938 480.137 151.922C479.98 151.906 479.84 151.898 479.715 151.898C479.387 151.898 479.074 151.953 478.777 152.062C478.48 152.167 478.217 152.328 477.988 152.547C477.759 152.76 477.579 153.029 477.449 153.352C477.319 153.674 477.254 154.049 477.254 154.477V159H475.41V150.352H476.848L477.098 151.875H477.183C477.355 151.568 477.569 151.286 477.824 151.031C478.079 150.776 478.371 150.573 478.699 150.422C479.032 150.266 479.397 150.188 479.793 150.188ZM486.535 157.672C486.775 157.672 487.012 157.651 487.246 157.609C487.48 157.562 487.694 157.508 487.887 157.445V158.836C487.683 158.924 487.42 159 487.098 159.062C486.775 159.125 486.439 159.156 486.09 159.156C485.6 159.156 485.16 159.076 484.769 158.914C484.379 158.747 484.069 158.464 483.84 158.062C483.611 157.661 483.496 157.107 483.496 156.398V151.75H482.316V150.93L483.582 150.281L484.183 148.43H485.34V150.352H487.816V151.75H485.34V156.375C485.34 156.812 485.449 157.138 485.668 157.352C485.887 157.565 486.176 157.672 486.535 157.672ZM505.262 153.18C505.262 154.466 505.022 155.542 504.543 156.406C504.064 157.266 503.368 157.914 502.457 158.352C501.545 158.784 500.446 159 499.16 159H495.988V147.578H499.504C500.686 147.578 501.707 147.792 502.566 148.219C503.426 148.641 504.09 149.268 504.558 150.102C505.027 150.93 505.262 151.956 505.262 153.18ZM503.308 153.234C503.308 152.297 503.16 151.526 502.863 150.922C502.571 150.318 502.139 149.87 501.566 149.578C500.999 149.281 500.298 149.133 499.465 149.133H497.863V157.43H499.191C500.571 157.43 501.603 157.078 502.285 156.375C502.967 155.672 503.308 154.625 503.308 153.234ZM512.918 150.188C513.064 150.188 513.223 150.195 513.394 150.211C513.566 150.227 513.715 150.247 513.84 150.273L513.668 151.992C513.558 151.961 513.423 151.938 513.262 151.922C513.105 151.906 512.965 151.898 512.84 151.898C512.512 151.898 512.199 151.953 511.902 152.062C511.605 152.167 511.342 152.328 511.113 152.547C510.884 152.76 510.704 153.029 510.574 153.352C510.444 153.674 510.379 154.049 510.379 154.477V159H508.535V150.352H509.973L510.223 151.875H510.308C510.48 151.568 510.694 151.286 510.949 151.031C511.204 150.776 511.496 150.573 511.824 150.422C512.157 150.266 512.522 150.188 512.918 150.188ZM518.277 150.352V159H516.441V150.352H518.277ZM517.371 147.039C517.652 147.039 517.894 147.115 518.098 147.266C518.306 147.417 518.41 147.677 518.41 148.047C518.41 148.411 518.306 148.672 518.098 148.828C517.894 148.979 517.652 149.055 517.371 149.055C517.079 149.055 516.832 148.979 516.629 148.828C516.431 148.672 516.332 148.411 516.332 148.047C516.332 147.677 516.431 147.417 516.629 147.266C516.832 147.115 517.079 147.039 517.371 147.039ZM523.887 159L520.598 150.352H522.543L524.324 155.43C524.439 155.753 524.543 156.102 524.637 156.477C524.73 156.852 524.795 157.167 524.832 157.422H524.894C524.931 157.156 525.001 156.839 525.105 156.469C525.209 156.094 525.316 155.747 525.426 155.43L527.207 150.352H529.144L525.855 159H523.887ZM534.902 150.188C535.673 150.188 536.334 150.346 536.887 150.664C537.439 150.982 537.863 151.432 538.16 152.016C538.457 152.599 538.605 153.297 538.605 154.109V155.094H532.832C532.853 155.932 533.077 156.578 533.504 157.031C533.936 157.484 534.54 157.711 535.316 157.711C535.868 157.711 536.363 157.659 536.801 157.555C537.243 157.445 537.699 157.286 538.168 157.078V158.57C537.736 158.773 537.295 158.922 536.848 159.016C536.4 159.109 535.863 159.156 535.238 159.156C534.389 159.156 533.642 158.992 532.996 158.664C532.355 158.331 531.853 157.836 531.488 157.18C531.129 156.523 530.949 155.708 530.949 154.734C530.949 153.766 531.113 152.943 531.441 152.266C531.769 151.589 532.23 151.073 532.824 150.719C533.418 150.365 534.111 150.188 534.902 150.188ZM534.902 151.57C534.324 151.57 533.855 151.758 533.496 152.133C533.142 152.508 532.933 153.057 532.871 153.781H536.808C536.803 153.349 536.73 152.966 536.59 152.633C536.454 152.299 536.246 152.039 535.965 151.852C535.689 151.664 535.334 151.57 534.902 151.57ZM546.058 150.188C546.204 150.188 546.363 150.195 546.535 150.211C546.707 150.227 546.855 150.247 546.98 150.273L546.808 151.992C546.699 151.961 546.564 151.938 546.402 151.922C546.246 151.906 546.105 151.898 545.98 151.898C545.652 151.898 545.34 151.953 545.043 152.062C544.746 152.167 544.483 152.328 544.254 152.547C544.025 152.76 543.845 153.029 543.715 153.352C543.584 153.674 543.519 154.049 543.519 154.477V159H541.676V150.352H543.113L543.363 151.875H543.449C543.621 151.568 543.834 151.286 544.09 151.031C544.345 150.776 544.637 150.573 544.965 150.422C545.298 150.266 545.663 150.188 546.058 150.188ZM555.394 156.531C555.394 157.099 555.256 157.578 554.98 157.969C554.704 158.359 554.301 158.656 553.769 158.859C553.243 159.057 552.598 159.156 551.832 159.156C551.228 159.156 550.707 159.112 550.269 159.023C549.837 158.94 549.428 158.81 549.043 158.633V157.047C549.454 157.24 549.915 157.406 550.426 157.547C550.941 157.688 551.428 157.758 551.887 157.758C552.491 157.758 552.926 157.664 553.191 157.477C553.457 157.284 553.59 157.029 553.59 156.711C553.59 156.523 553.535 156.357 553.426 156.211C553.321 156.06 553.124 155.906 552.832 155.75C552.545 155.589 552.124 155.396 551.566 155.172C551.019 154.953 550.558 154.734 550.183 154.516C549.808 154.297 549.525 154.034 549.332 153.727C549.139 153.414 549.043 153.016 549.043 152.531C549.043 151.766 549.345 151.185 549.949 150.789C550.558 150.388 551.363 150.188 552.363 150.188C552.894 150.188 553.394 150.242 553.863 150.352C554.337 150.456 554.801 150.609 555.254 150.812L554.676 152.195C554.285 152.023 553.892 151.883 553.496 151.773C553.105 151.659 552.707 151.602 552.301 151.602C551.827 151.602 551.465 151.674 551.215 151.82C550.97 151.966 550.848 152.174 550.848 152.445C550.848 152.648 550.907 152.82 551.027 152.961C551.147 153.102 551.353 153.242 551.644 153.383C551.941 153.523 552.353 153.698 552.879 153.906C553.394 154.104 553.84 154.312 554.215 154.531C554.595 154.745 554.887 155.008 555.09 155.32C555.293 155.633 555.394 156.036 555.394 156.531Z" fill="#777777"/>
<rect x="507" y="178" width="50" height="3" fill="#FECE01"/>
</svg>
